<?xml version="1.0" encoding="iso-8859-1"?>
<!-- Generator: Adobe Illustrator 24.0.1, SVG Export Plug-In . SVG Version: 6.00 Build 0)  -->
<svg version="1.1" xmlns="http://www.w3.org/2000/svg" xmlns:xlink="http://www.w3.org/1999/xlink" x="0px" y="0px"
	 viewBox="0 0 3000 3000" style="enable-background:new 0 0 3000 3000;" xml:space="preserve">
<g id="&#x56FE;&#x5C42;_1" style="display:none;">
	
		<image style="display:inline;overflow:visible;" width="1080" height="1080" xlink:href="../logo&#x8349;&#x56FE;.jpg"  transform="matrix(2.7778 0 0 2.7778 0 54)">
	</image>
</g>
<g id="&#x56FE;&#x5C42;_2">
	<line x1="1590.067" y1="-174.667" x2="1590.067" y2="-174.667"/>
	<g>
		<path d="M2361,2198.333c-502,0-652-496.679-652-1016c0-762,198.536-1042.616,107.202-1042.616
			c-48.201,0-196.54,72.451-364.202,391.616c-249,474-313.65,473.344-569.638,473.344c-157.345,0-307.953-80.344-307.953-312.103
			c0-207.405,195.25-553.538,118.858-552.483c-98.045,1.354-553.848,431.256-553.848,1067.535
			c0,566.708,141.835,779.043,364.247,908.041c66.667,38.667,58.667,115.328-30.711,115.328
			c-215.956,0-376.021-279.988-427.717-545.923C-215,346.333,764.291-129.839,833.369,49.809
			c66.623,173.262-419.787,821.063,102.3,821.063c177.826,0,212.33-78.539,413.33-407.539c188.574-308.661,356-449.918,510-449.918
			c228.667,0,17.089,462.282-3.524,803.584c-52,861,182.858,1246.667,498.858,1246.667c140,0,191.471-108.027,158.667-448
			c-33-342,52.207-482.136,198-727.333c396-666-150.437-678.343-322-599.333c-202.667,93.333-126,399.333,46,303.333
			c177.667-99.163,173.202,188-80,188c-181.819,0-289.423-210.873-202-444c152-405.333,1347-399,606,785.872
			C2466.371,1590.124,2978.333,2198.333,2361,2198.333z"/>
	</g>
	<path d="M1590.067-174.667"/>
	<path d="M1590.067-174.667"/>
	<g id="&#x56FE;&#x5C42;_5">
	</g>
</g>
<g id="&#x56FE;&#x5C42;_8" style="display:none;">
	<path style="display:inline;fill:#ED1C24;" d="M2699.475,1296.3c-222.015,222.015,0.946,539.82-5.13,798.63
		c1.485,118.846-40.2,311.278-328.2,311.278c-350.553,0-519.324-322.213-604.03-752.294C1606.195,862.254,2154.945-179,1573.611,581
		c-263.486,344.466-242.667,590.102-624.108,590.102c-461.226,0-385.444-409.032-311.103-594.471
		C709.611,399,814.611,97.333,441.611,559c-489.146,605.422-289.111,1368.259-75.24,1799.014
		c-31.003,262.341-370.296-551.015-338.259-619.055c-168.751-1046.813,465.5-1551.52,751.5-1551.52
		c268,0-363.333,861.965,167.127,861.965c320.8,0,274.873-208.404,538.873-544.404c447.326-569.323,519.023-237.558,465.032-6.159
		C1819.478,1061,1866.681,1537.691,2008.145,1843c115.525,249.329,248.192,418.08,435.333,340.667
		c170.931-70.708-73.91-473.132,36.693-801.653c83.681-248.557,200.924-309.169,310.497-517.786
		c218.092-415.228-61.856-536.5-253.738-536.5c-446.785,0-329.451,458.606-197.451,413.273
		c203.199-69.786,225.333,188.399-49.422,188.399c-173.6,0-247.911-203.066-215.666-410.542
		C2173.204-116.935,3630.145,141,2699.475,1296.3z"/>
</g>
<g id="&#x56FE;&#x5C42;_3" style="display:none;">
	<rect x="-202.938" y="2406.208" style="display:inline;fill:#00FF00;" width="3292" height="512"/>
	<rect x="3041" y="183" style="display:inline;" width="0" height="34"/>
</g>
<g id="&#x56FE;&#x5C42;_3_x5F_&#x590D;&#x5236;" style="display:none;">
	<rect x="-202.938" y="-324.561" style="display:inline;fill:#00FF00;" width="3292" height="512"/>
	<rect x="3041" y="-2547.769" style="display:inline;" width="0" height="34"/>
</g>
<g id="&#x56FE;&#x5C42;_3_x5F_&#x590D;&#x5236;_2" style="display:none;">
	<rect x="-202.438" y="-197.616" style="display:inline;fill:#FF0000;" width="3292" height="512"/>
	<rect x="3041.5" y="-2420.825" style="display:inline;fill:#FF0000;" width="0" height="34"/>
</g>
<g id="&#x56FE;&#x5C42;_6" style="display:none;">
	
		<rect x="423.785" y="611.224" transform="matrix(4.490281e-11 -1 1 4.490281e-11 -611.2241 2829.9932)" style="display:inline;fill:#00FF00;" width="1371.199" height="2218.769"/>
</g>
<g id="&#x56FE;&#x5C42;_6_x5F_&#x590D;&#x5236;" style="display:none;">
	
		<rect x="423.785" y="-236.077" transform="matrix(4.490281e-11 -1 1 4.490281e-11 236.0774 1982.6918)" style="display:inline;fill:#00FF00;" width="1371.199" height="2218.769"/>
</g>
<g id="&#x56FE;&#x5C42;_12" style="display:none;">
	<rect x="1.476" style="display:inline;fill:#00FF00;" width="1854" height="3000"/>
</g>
<g id="&#x56FE;&#x5C42;_14" style="display:none;">
	<rect x="145.175" y="1558.907" style="display:inline;fill:#FF00FF;" width="971.738" height="431.093"/>
</g>
<g id="&#x56FE;&#x5C42;_15" style="display:none;">
	<rect x="516.379" y="1558.907" style="display:inline;fill:#FF00FF;" width="600.534" height="431.093"/>
</g>
<g id="&#x56FE;&#x5C42;_9">
	<path d="M516.379,1384.24c0,185.904,139.493,231.53,139.493,0S516.379,1198.336,516.379,1384.24z"/>
</g>
<g id="&#x56FE;&#x5C42;_9_x5F_&#x590D;&#x5236;">
	<path d="M1116.913,1384.24c0,185.904,139.493,231.53,139.493,0S1116.913,1198.336,1116.913,1384.24z"/>
</g>
<g id="&#x56FE;&#x5C42;_17" style="display:none;">
	<g style="display:inline;">
		<g>
			<path d="M404.548,1401.262c100.799,1.454,200.524,31.999,285.275,86.509c23.792,15.302,46.301,32.475,67.353,51.369
				c0.735-2.786,1.471-5.571,2.206-8.357c-89.645,31.089-181.752,54.969-275.233,71.241c-26.534,4.619-53.173,8.62-79.892,12.004
				c-6.298,0.798-6.378,10.808,0,10c94.901-12.019,188.782-31.571,280.507-58.747c25.947-7.688,51.708-15.988,77.276-24.854
				c3.336-1.157,5.186-5.682,2.206-8.357c-76.276-68.457-171.839-114.756-272.766-132.542c-28.706-5.059-57.788-7.845-86.934-8.265
				C398.11,1391.17,398.108,1401.17,404.548,1401.262L404.548,1401.262z"/>
		</g>
	</g>
	<g style="display:inline;">
		<g>
			<path d="M1378.886,1374.938c-98.425,17.506-195.33,43.327-289.382,77.222c-26.615,9.592-52.989,19.841-79.115,30.695
				c-3.386,1.407-5.649,7.222-1.194,9.139c94.099,40.491,190.291,76.051,288.167,106.3c27.409,8.471,54.946,16.52,82.595,24.171
				c6.212,1.719,8.862-7.926,2.658-9.643c-97.696-27.035-193.954-59.204-288.246-96.416c-26.876-10.607-53.587-21.627-80.128-33.047
				c-0.398,3.046-0.796,6.093-1.194,9.139c92.319-38.355,187.844-68.889,285.322-91.085c27.585-6.281,55.321-11.878,83.175-16.832
				C1387.87,1383.455,1385.19,1373.816,1378.886,1374.938L1378.886,1374.938z"/>
		</g>
	</g>
</g>
<g id="&#x56FE;&#x5C42;_16">
	<path d="M535.366,2892l10.303,39c1.717,6.672,2.575,13,2.575,19c0,19.344-7.016,34.344-21.034,45
		c-14.032,10.656-30.478,16-49.366,16c-14.89,0-27.768-3.672-38.634-11c-10.879-7.328-18.029-17.656-21.463-31l-29.19-129
		l-175.142-1l-30.049,127c-3.434,15.344-10.45,26.5-21.034,33.5c-10.598,7-23.328,10.5-38.205,10.5
		c-18.888,0-35.496-5.5-49.795-16.5c-14.313-11-21.463-25.5-21.463-43.5c0-6.656,0.858-13.328,2.576-20l98.731-346l48.078-171
		c13.16-45.328,27.473-77.5,42.927-96.5c15.454-19,36.34-28.5,62.673-28.5c25.179,0,45.073,8.5,59.668,25.5
		s27.902,47.172,39.922,90.5c31.471,116,58.944,219,82.419,309h23.181c28.037,0,42.068,21,42.068,63c0,42.672-10.598,64-31.766,64
		h-0.858L535.366,2892z M359.366,2711l-11.161-47l-21.463-88l-8.585-35c-3.435-14.656-6.305-25.328-8.585-32
		c-2.294-6.656-4.588-10-6.868-10c-2.871,0-5.151,3-6.869,9c-1.717,6-4.292,16.672-7.727,32l-6.869,29l-35.2,141L359.366,2711z"/>
	<path d="M1081.388,2407c60.661,56,91.005,133,91.005,231c0,71.344-15.883,133.844-47.649,187.5
		c-31.766,53.672-76.705,95.344-134.79,125c-58.099,29.672-125.776,44.5-203.044,44.5h-55.805c-25.192,0-43.222-5-54.087-15
		c-10.879-10-16.313-27-16.313-51c0-20.656,3.863-36.156,11.59-46.5c7.727-10.328,19.88-15.5,36.488-15.5h8.585l-10.303-441h-5.151
		c-12.597,0-22.751-5.156-30.478-15.5c-7.727-10.328-11.59-25.828-11.59-46.5c0-22.656,4.427-39.5,13.307-50.5
		c8.867-11,20.176-16.5,33.912-16.5h11.161c9.726-11.328,25.756-17,48.078-17c25.756,0,42.927,7.672,51.512,23
		C932.861,2316.344,1020.713,2351,1081.388,2407z M946.168,2826.5c31.189-19.656,55.939-45.656,74.264-78
		c18.311-32.328,27.473-69.156,27.473-110.5c0-62.656-19.465-109.828-58.38-141.5c-38.929-31.656-91.582-52.5-157.971-62.5
		l10.302,430C880.195,2858.672,914.966,2846.172,946.168,2826.5z"/>
	<path d="M1848.057,2802c1.141,57.344,1.718,102,1.718,134c0,22.672-5.446,40.172-16.313,52.5
		c-10.879,12.328-26.051,18.5-45.502,18.5c-19.465,0-34.919-6-46.361-18c-11.456-12-17.171-28-17.171-48v-270
		c0-65.328-1.717-116.156-5.151-152.5c-3.434-36.328-7.727-54.5-12.878-54.5c-4.588,0-11.456,14-20.604,42
		c-9.162,28-17.171,55.672-24.039,83c-9.739,37.344-19.747,80.672-30.049,130c-4.012,18-11.738,31.344-23.181,40
		c-11.456,8.672-26.614,13-45.503,13c-38.352,0-61.532-16.328-69.541-49l-10.303-43c-8.021-34-16.312-65.656-24.897-95
		c-6.868-23.328-15.454-49.328-25.756-78c-10.303-28.656-16.889-43-19.747-43c-3.434,0-6.01,18.5-7.727,55.5
		c-1.717,37-3.153,86.172-4.293,147.5c-0.577,24-0.858,56-0.858,96l0.858,180c0,18-5.728,32.5-17.17,43.5
		c-11.457,11-27.192,16.5-47.22,16.5c-19.465,0-34.489-6-45.073-18c-10.598-12-15.883-32.656-15.883-62l0.858-126
		c1.14-56,1.717-100.328,1.717-133c0-90.656,3.998-163.5,12.02-218.5c8.008-55,20.604-95.156,37.775-120.5
		c17.171-25.328,39.774-38,67.825-38c33.765,0,61.667,15.672,83.707,47c22.027,31.344,38.634,66.672,49.795,106
		c11.161,39.344,21.893,86,32.195,140c10.866-52,22.604-98.156,35.2-138.5c12.583-40.328,30.183-76.156,52.8-107.5
		c22.604-31.328,50.225-47,82.849-47c29.754,0,52.935,14.5,69.542,43.5c16.594,29,28.184,70.672,34.771,125
		c6.573,54.344,9.873,124.172,9.873,209.5C1846.34,2699,1846.903,2744.672,1848.057,2802z"/>
	<path d="M2313.376,2932c0,44-18.606,66-55.806,66l-257.561-4c-18.888-0.656-32.195-7.328-39.922-20
		c-7.727-12.656-11.591-27.656-11.591-45c0-22,5.004-38.5,15.024-49.5c10.008-11,22.175-16.5,36.488-16.5l71.259,1
		c7.432-147.328,11.442-295,12.02-443c-24.616,2-45.221,4-61.815,6l-28.331,2c-16.03,0-28.198-5.656-36.488-17
		c-8.304-11.328-12.448-27.328-12.448-48c0-21.328,4.145-37,12.448-47c8.29-10,20.458-16.328,36.488-19c12.583-2,34.904-4,66.966-6
		c32.048-2,64.095-3,96.156-3c30.907,0,66.966,2,108.176,6c16.017,1.344,28.184,7.844,36.487,19.5
		c8.29,11.672,12.449,26.844,12.449,45.5c0,42-18.029,63-54.088,63c-8.586,0-25.757-1-51.513-3c-1.153,181.344-5.446,330-12.878,446
		l63.532,1C2295.051,2867.672,2313.376,2889.344,2313.376,2932z"/>
	<path d="M2924.221,2304c10.007,12.672,15.024,32.344,15.024,59c0,52.672-0.296,92.344-0.858,119l-0.859,148
		c0,101.344-2.441,177-7.297,227c-4.87,50-13.885,84.672-27.044,104c-13.174,19.344-33.201,29-60.098,29
		c-20.605,0-39.641-7.656-57.093-23c-17.466-15.328-37.212-40.656-59.239-76c-22.04-35.328-52.8-89.656-92.293-163l-101.307-191
		c0.563,24.672,0.858,70.672,0.858,138l0.858,255c0,17.344-5.876,32-17.601,44c-11.737,12-26.762,18-45.072,18
		c-18.325,0-33.35-5.828-45.073-17.5c-11.738-11.656-17.601-26.5-17.601-44.5v-261l-0.858-109c-0.577-18.656-0.858-45-0.858-79
		c0-49.328,1.852-87.328,5.58-114c3.716-26.656,10.732-45.828,21.034-57.5c10.303-11.656,25.757-17.5,46.361-17.5
		c20.028,0,38.205,7,54.517,21c16.313,14,35.482,39,57.522,75c22.026,36,55.08,95,99.161,177
		c23.462,43.344,58.38,109.344,104.741,198l16.313,32v-165l0.858-283c0-18,5.151-32.828,15.453-44.5
		c10.303-11.656,26.32-17.5,48.078-17.5C2898.599,2285,2914.199,2291.344,2924.221,2304z"/>
</g>
</svg>
