<svg fill="#ABADAE" class="icon" viewBox="0 0 1031 1024" version="1.1"
     xmlns="http://www.w3.org/2000/svg" width="33" height="33">
    <path
            d="M144.882224 155.737418c-11.096779-5.097432-54.7068 58.189642-74.190586 90.912257-15.449326 25.954223-24.65772 47.841775-30.153767 60.839018C13.641469 371.085801 0 438.632814 0 508.249401s13.641469 137.159574 40.537871 200.756682a517.204132 517.204132 0 0 0 274.45202 274.456046c63.61724 26.896403 131.144121 40.537871 200.760708 40.537871s137.1636-13.641469 200.760708-40.537871a517.188026 517.188026 0 0 0 274.452019-274.456046c26.900429-63.597108 40.537871-131.140095 40.537871-200.756682s-13.637442-137.1636-40.537871-200.760708a517.796014 517.796014 0 0 0-186.825311-226.896119c-42.22091-28.527098-78.208941-43.694575-87.614629-47.5559-175.994275-72.278042-335.971501-3.422446-335.971501-3.422446-123.735531 55.258418-166.4839 134.647096-189.768615 171.806811-80.528151 128.394085-104.139005 302.266443-40.264076 437.485288 28.144589 59.590832 98.546325 165.223635 156.961447 155.149563 4.026408-0.692542 8.326611-1.433401 13.150247-4.497497 41.250546-26.171649-19.52405-136.422741-19.524051-269.83373 0-150.587643 52.512408-267.248776 75.696463-265.7429 12.304702 0.805282 7.899812 36.893973 41.874639 66.033084 19.056987 16.343188 28.474754 11.877902 80.528151 36.237669 34.574762 16.178106 51.864156 24.271185 61.765092 37.638858 17.518899 23.655144 11.825559 35.661892 24.963727 73.095403s31.65159 33.419183 33.262153 50.330094-35.835027 66.371302-76.501744 76.501744c-61.318161 15.300349-116.18199-39.656088-124.013353-28.990134-5.02093 6.844893 13.641469 33.789612 40.264076 51.538016 33.66882 22.443196 54.843698 13.351568 86.165122 24.963727 59.011029 21.883525 48.630951 78.192835 107.678217 120.313085 53.796832 38.367638 141.955025 43.15101 155.644811 16.57672 20.46623-39.724537-57.368255-93.010015-23.312899-181.510453 16.870648-45.043422 28.680101-36.451068 66.798101-89.064136s63.887009-151.392925 25.769009-208.567912c-16.391505-26.393102-38.629354-43.887843-63.061596-52.987524-43.718733-16.266687-103.796761-7.368326-137.856142 35.601496-39.333976 49.617421-30.749675 128.168606 13.017376 161.801188 21.178904 16.274739 53.188844 24.021548 83.213765 14.760811 9.868725-3.039938 42.760448-15.086949 55.564424-49.387916 1.91657-5.137696 15.042659-42.152461-8.322584-70.329261-18.461079-22.266034-52.548645-30.419509-77.037256-17.446424-4.429048 2.343369-19.061013 8.491694-25.398579 24.009469-6.039611 14.809127-3.511027 35.029746 9.292948 45.377613 10.066019 8.145423 27.443994 10.98404 33.286312 4.429048 0.454984-0.511354 1.888385-1.727329 1.876306-3.668057-0.036238-6.168456-15.38893-5.459809-16.910912-22.636463s5.818159-26.485709 24.697984-27.379572 40.711007 12.884504 39.994306 39.724537-29.191455 42.313517-32.746772 44.024741c-22.386826 10.750508-49.593262 6.277169-67.108135-7.114663-31.563009-24.130261-34.188227-79.130988-9.127866-111.531489 30.600698-39.551402 95.425859-36.338328 129.920093-8.052816 43.058403 35.307568 30.032974 101.868112 25.966302 121.033812-21.098376 99.355633-90.388824 88.339382-112.936706 177.455861s16.045234 122.197443 16.105631 150.052131c0 0.805282 0 3.16073-1.554194 5.097432-8.403113 10.404237-52.307061-6.873078-82.138714-27.729869s-27.625182-34.892848-48.373261-59.506277-29.658518-34.743871-38.653512-44.290484a321.63749 321.63749 0 0 0 24.963726-25.769008c6.534859-7.56562 10.8713-13.379752 20.132038-22.547883 5.947004-5.902713 6.699942-6.039611 9.925095-9.792223 2.979542-3.478816 10.045887-11.889982 14.253483-24.826829 0.225479-0.688516 4.396837-13.907212 2.967462-28.446569-2.476241-25.177127-19.00867-28.084193-33.588292-57.726606-14.164902-28.796867-4.936376-38.842754-23.353164-70.864773-8.680935-15.095002-16.20629-22.3828-20.401807-26.038778-15.473484-13.484439-31.683801-17.659824-40.799588-20.264909-40.839852-11.676582-67.07995-19.161674-84.554559-36.640309-31.220764-31.228817-18.887878-72.575996-49.734186-91.157867-4.682712-2.818485-10.645822-4.183437-18.473158-3.579477-50.003956 3.853272-115.078755 133.113034-126.747284 270.546404-13.568994 159.787984 49.979797 266.656894 28.261355 276.759151-17.953751 8.350769-76.936596-57.428651-108.713005-135.287294-69.995069-171.496778 17.446424-339.305366 30.065186-362.646451 20.385702-37.711333 59.900865-107.786931 142.800571-156.760126 122.020281-72.072696 248.831988-46.130552 274.870765-40.799588 186.470987 38.158265 369.600057 225.386217 368.818934 453.909005-0.950232 278.188526-273.795715 468.516811-485.584753 467.063278-107.279603-0.736833-205.612529-46.996229-205.612529-46.996229-38.617275-18.654346-104.183296-56.575053-162.264225-127.48009-17.136391-20.937319-79.376599-100.571608-99.452267-212.864089-40.094967-224.270902 116.173938-423.956559 97.704806-432.436174z"
    ></path>
    <path
            d="M513.926636 428.107785c-6.752285-1.832015-13.689786-3.0037-20.574943-4.316309a73.703391 73.703391 0 0 0-19.077119-1.159605 29.086768 29.086768 0 0 0-4.557893 15.827808c0 14.640018 10.303577 26.505841 23.018972 26.505841s23.014946-11.865823 23.014946-26.505841a29.908155 29.908155 0 0 0-1.823963-10.351894z"
    ></path>
    <path
            d="M500.011371 413.697272c-19.507945-5.596707-36.00011-0.479143-50.732735 4.694792s-24.065838 7.936049-25.277787 13.979687c-2.625218 13.118036 31.128157 31.80862 57.891688 40.111072 33.306443 10.343841 64.603709 7.247534 66.298827 0.769044 0.555644-2.12997-1.364952-7.416643-1.610563-8.097106-1.336767-3.688189-3.192941-6.083902-3.623766-6.901262-3.772744-7.187138-5.198092-14.688335-10.170706-22.793494-8.266215-13.476386-25.748876-19.749529-32.774958-21.762733z m33.854035 51.872209a246.222876 246.222876 0 0 1-33.217862-2.456109c-13.150247-1.884359-22.636463-3.321786-33.564134-8.705093-2.415845-1.207922-23.083395-11.547737-21.33996-19.226096 0.982443-4.372679 8.785621-5.898687 18.924116-7.887732 9.373477-1.832015 28.539177-5.33499 45.989627 3.221126 7.287798 3.57545 10.46866 7.376379 11.273941 8.403112 3.076175 3.873404 3.953932 7.489118 6.442252 12.775792s8.004498 11.495394 6.393936 13.371699a1.666933 1.666933 0 0 1-0.901916 0.503301z"
    ></path>
</svg>