<svg xmlns="http://www.w3.org/2000/svg" viewBox="0 0 2997.98 2217.58"><title>LOGO</title><line x1="1588.71" y1="-188.08" x2="1588.71" y2="-188.08"/><path d="M2361,2518.42c-502,0-652-496.68-652-1016,0-762,198.54-1042.62,107.2-1042.62-48.2,0-196.54,72.45-364.2,391.62-249,474-313.65,473.34-569.64,473.34-157.34,0-308-80.34-308-312.1,0-207.41,195.25-553.54,118.86-552.49-98,1.36-553.85,431.26-553.85,1067.54,0,566.71,141.83,779,364.25,908,66.66,38.67,58.66,115.33-30.71,115.33-216,0-376-280-427.72-545.93C-215,666.42,764.29,190.24,833.37,369.89,900,543.15,413.58,1191,935.67,1191c177.83,0,212.33-78.53,413.33-407.53,188.57-308.66,356-449.92,510-449.92,228.67,0,17.09,462.28-3.52,803.58-52,861,182.85,1246.67,498.85,1246.67,140,0,191.47-108,158.67-448-33-342,52.21-482.14,198-727.33,396-666-150.44-678.35-322-599.34-202.67,93.34-126,399.34,46,303.34,177.67-99.17,173.2,188-80,188-181.82,0-289.42-210.88-202-444,152-405.34,1347-399,606,785.87C2466.37,1910.21,2978.33,2518.42,2361,2518.42Z" transform="translate(-1.36 -333.5)"/><path d="M1590.07,145.42" transform="translate(-1.36 -333.5)"/><path d="M1590.07,145.42" transform="translate(-1.36 -333.5)"/><path d="M516.38,1704.32c0,185.91,139.49,231.53,139.49,0S516.38,1518.42,516.38,1704.32Z" transform="translate(-1.36 -333.5)"/><path d="M1116.91,1704.32c0,185.91,139.5,231.53,139.5,0S1116.91,1518.42,1116.91,1704.32Z" transform="translate(-1.36 -333.5)"/></svg>