<?xml version="1.0" encoding="utf-8"?>
<!-- Generator: Adobe Illustrator 24.0.1, SVG Export Plug-In . SVG Version: 6.00 Build 0)  -->
<svg version="1.1" id="图层_1" xmlns="http://www.w3.org/2000/svg"  x="0px" y="0px"
	 viewBox="0 0 2522.1 394.2" style="enable-background:new 0 0 2522.1 394.2;" xml:space="preserve">
<title>LOGO横</title>
<line x1="380.9" y1="-8.8" x2="380.9" y2="-8.8"/>
<path d="M506.2,376.5c-81.5,0-105.9-80.7-105.9-165c0-123.8,32.2-169.4,17.4-169.4c-7.9,0-31.9,11.8-59.2,63.6
	c-40.4,77-51,76.9-92.4,76.9c-25.6,0-50.1-13.1-50.1-50.7c0-33.7,31.7-89.9,19.3-89.7c-15.9,0.2-90,70.1-90,173.4
	c0,92,23,126.5,59.2,147.4c10.9,6.3,9.5,18.7-5,18.7c-35.1,0-61-45.5-69.4-88.7C87.8,75.8,246.8-1.5,258.1,27.7
	C268.9,55.8,189.9,161,274.7,161c28.9,0,34.5-12.8,67.1-66.1c30.6-50.1,57.8-73.1,82.9-73.1c37.1,0,2.7,75.1-0.5,130.5
	c-8.4,139.9,29.7,202.4,81,202.4c22.7,0,31.1-17.5,25.8-72.7c-5.4-55.5,8.5-78.3,32.2-118.1c64.2-108.2-24.5-110.3-52.3-97.5
	c-32.9,15.2-20.5,64.9,7.5,49.2c28.9-16.1,28.1,30.5-13,30.5c-29.5,0-47-34.3-32.8-72.1c24.7-65.9,218.8-64.8,98.4,127.6
	C523.3,277.8,606.4,376.5,506.2,376.5z"/>
<path d="M380.9-8.8"/>
<path d="M380.9-8.8"/>
<path d="M206.7,244.4c0,30.1,22.7,37.6,22.7,0S206.7,214.1,206.7,244.4z"/>
<path d="M304.1,244.4c0,30.1,22.7,37.6,22.7,0S304.1,214.1,304.1,244.4z"/>
<path d="M926,248.4c0.5,30,0.7,53,0.7,69c0,5.7-1.6,10.1-4.6,13.3c-3.1,3.2-7.5,4.8-13.5,4.8s-10.5-1.6-13.9-4.6
	c-3.3-3.1-5-7.2-5-12.4V214.4c0-34.2-1.2-59.4-3.7-75.7c-2.5-16.2-5.7-24.4-9.6-24.4c-3.4,0-8.2,5.5-14.4,16.6
	c-5.9,10.5-11.1,21.3-15.5,32.4c-6.4,15.3-12.7,37.1-18.8,65.7c-2.2,9.4-9.1,14-20.7,14c-11,0-17.8-4.3-20.3-12.9
	c-1.8-5.2-3.7-12.2-5.9-21c-5.2-19.6-9.7-34.7-13.7-45c-4.2-11.7-9.4-23.1-15.5-33.9c-6.1-11-10.7-16.6-13.7-16.6
	c-7.1,0-11.4,32.7-12.9,98.2c-0.3,11.8-0.4,28.9-0.4,51.3v55.3c0.2,4.3-1.7,8.5-5,11.2c-3.3,2.8-8.1,4.2-14.2,4.2
	c-6.4,0-11-1.6-13.7-4.8s-4-8.2-4-14.7c0-13.1,0.2-31.2,0.7-54.3L689,211c0-48.9,3.5-84.6,10.5-107c7-22.4,18.4-33.6,34.1-33.6
	c18,0,32.4,11.4,43.6,34.1s20.9,51.4,29.5,85.8c7.6-31.5,17.9-59.3,30.8-83.6c12.9-24.2,28.2-36.4,45.9-36.4
	c10.8,0,19.3,5.4,25.2,16.4c6,11,10.3,26.7,12.7,47.3c2.5,20.6,3.8,46.8,4,78.8L926,248.4z"/>
<path d="M998.4,122.4c-4.9-5-7.4-11.4-7.4-19c-0.2-6.9,2.6-13.6,7.5-18.4c5.1-4.9,11.5-7.4,19.4-7.4c7.9,0,14.2,2.4,19,7
	s7.2,10.8,7.2,18.4c0.2,7.2-2.5,14.1-7.5,19.2c-5.1,5.2-11.5,7.7-19.4,7.7C1009.6,129.9,1003.4,127.4,998.4,122.4z M998.4,326.9
	c-3.4-2.7-5.2-6.5-5.2-11.4l3.7-149.8c-0.2-4.5,1.7-8.8,5.2-11.7c3.4-2.8,7.9-4.2,13.3-4.2s9.9,1.5,13.5,4.5
	c3.5,2.9,5.5,7.3,5.3,11.8l-3.7,149.8c-0.3,4.9-2,8.7-5.3,11.2c-3.3,2.5-7.7,3.9-13.1,3.9C1006.4,331,1001.9,329.6,998.4,326.9
	L998.4,326.9z"/>
<path d="M1278.3,307.4c2.1,1.9,3.2,5.3,3.2,10c0.1,4-1,7.8-3.3,11c-2.2,2.9-5.6,4.6-9.2,4.5c-10.1,0-17.6-1.5-22.7-4.5
	c-5.1-3-9.6-8.5-13.9-16.6c-10.3,16.7-29.5,25.1-57.6,25.1c-28.5,0-49.5-8.7-63.1-26c-13.6-17.4-20.3-38.9-20.3-64.8
	c0-17.2,3.4-33.1,10.3-47.6c6.6-14.2,17.1-26.2,30.2-34.7c13.3-8.6,28.8-12.9,46.5-12.9c11.3,0,21.3,2.2,30.1,6.7
	s15.3,10.4,19.7,18.1l1.1-9.2c1-8.9,6.3-13.3,15.9-13.3c6.4,0,11,1.4,13.7,4.2c2.7,2.8,3.8,6.3,3.3,10.5
	c-2.5,18.4-3.9,32.4-4.5,41.7c-0.7,8.9-1.1,20.4-1.1,34.7v24.4c0,12.8,0.7,21.7,2,26.6c1.3,4.9,5,7.7,10.9,8.5
	C1273.3,304.2,1276.2,305.4,1278.3,307.4z M1220.9,223.3c0-10.1-2.2-18.3-6.5-24.7c-3.9-6-9.4-10.9-15.9-14
	c-5.9-2.9-12.4-4.4-19-4.5c-11,0-20.5,3.2-28.2,9.8c-7.9,6.6-13.8,15.2-17.4,24.9c-3.8,10-5.7,20.7-5.7,31.4
	c0,16.5,3.9,30.8,11.7,43c7.7,12.2,19.9,18.2,36.4,18.2c13.1,0,23.6-3.3,31.7-10c8.2-6.7,12.3-16.2,12.5-28.8
	C1220.8,257.6,1220.9,242.5,1220.9,223.3L1220.9,223.3z"/>
<path d="M1341,310.9c-18.3-15.3-27.5-38.4-27.4-69.2c0-19.5,3.9-36.7,11.7-51.6c7.4-14.7,19-26.8,33.2-35.1
	c14.4-8.3,31.4-12.5,51.1-12.5c19.2,0,36.4,4.1,51.5,12.2c14.9,8,27.2,20.1,35.4,34.9c8.5,15.2,12.7,32.8,12.7,53
	c0,29.5-8.9,52.2-26.6,67.9c-17.7,15.8-41.2,23.6-70.5,23.6C1383,333.9,1359.3,326.3,1341,310.9z M1455.6,288.8
	c11.3-10.7,17-26.4,17-47.1c0-13.3-2.5-25.2-7.5-35.9c-4.7-10.3-12.2-19-21.7-25.1c-9.5-6-20.3-9-32.6-9c-18.2,0-32.8,6.3-43.7,19
	c-10.9,12.7-16.4,29.6-16.4,50.8c0,21.6,5.8,37.6,17.4,48c11.6,10.3,26,15.5,43.6,15.5C1429.4,304.8,1444.3,299.5,1455.6,288.8
	L1455.6,288.8z"/>
<path d="M1770.1,203.7c3.3,2.7,5,7,5,12.9c0,5.7-1.7,9.8-5,12.5c-3.3,2.7-7.5,4-12.4,4h-4.8l2.2,82.7c0.3,5.4-1.2,9.7-4.5,12.9
	c-3.2,3.2-7.7,4.8-13.7,4.8c-5.7,0-10.2-1.5-13.5-4.5s-5.1-7-5.3-12.2l-2.5-84.5l-112.1-1.8l-7.4,91.5c-1,8.9-7.1,13.3-18.4,13.3
	c-13.3,0-19.5-5.3-18.4-15.9l7-89.7h-5.5c-4.2,0.1-8.3-1.5-11.4-4.5c-3.2-3-4.8-7-4.8-12.2c0-5.4,1.6-9.6,4.8-12.4
	c3.2-2.8,7.4-4.2,12.5-4.2h7l9.2-114.1c0.3-4.9,2.1-8.8,5.7-11.7c3.6-2.9,8.1-4.2,13.5-4.2c6.4,0,11,1.8,14,5.2
	c3,3.4,4.2,7.9,3.7,13.3l-8.9,112.1l108.4,1.5l-3.3-114.4c0-5.4,1.6-9.7,4.8-12.9c3.2-3.2,7.7-4.8,13.7-4.8c5.7,0,10.2,1.6,13.5,4.6
	c3.3,3,5.2,7.2,5.3,11.7l3.3,116.6h5.9C1762.3,199.5,1766.7,201,1770.1,203.7z"/>
<path d="M1971.1,301.3c1.1,3.5,2.6,6.9,4.5,10.2c1.8,3,2.5,4.8,2.5,5.5c0,3.9-1.7,7.4-5,10.3c-3.1,2.8-7.1,4.4-11.2,4.5
	c-4.9,0-9.7-3.2-14.4-9.4c-4.6-6.2-7-12.4-7-18.7v-2.3c-4.6,10-12.2,18.3-21.7,23.8c-9.6,5.5-21.1,8.3-34.7,8.3
	c-21,0-36.8-7.3-47.8-21.9c-11-14.6-16.4-35-16.4-61.1v-89.7c-0.1-4,1.8-7.7,5-10c3.3-2.5,7.5-3.7,12.7-3.7c5.4,0,9.9,1.2,13.5,3.7
	c3.4,2.2,5.4,6,5.3,10v90c0,35.7,10.7,53.5,32.1,53.5c15,0,25.9-6.8,32.6-20.5c6.8-13.7,10.1-33.4,10.2-59.3v-63.8
	c0-4.9,1.6-8.8,4.8-11.7s7.5-4.2,12.9-4.2c5.6,0,10.2,1.5,13.7,4.5c3.4,2.8,5.3,7,5.2,11.4l1.5,125.8
	C1969.2,292.6,1969.8,297.5,1971.1,301.3z"/>
<path d="M2169,167.3c11,14.9,16.4,37.1,16.4,66.6v85.2c0,4.6-1.6,8.2-4.8,10.5c-3.2,2.4-7.5,3.5-12.9,3.5c-5.3,0-10-1.1-13.7-3.3
	s-5.5-5.5-5.5-10l0.4-86.4c0-20.5-2.3-35.3-6.8-44.4c-4.6-9.2-12.6-13.9-24.2-13.9c-22.2,0-36.6,17.7-43.1,53.1
	c-2.2,10.8-3.3,23.8-3.3,39.1l0.4,52.4c0,4.5-1.6,7.8-4.8,10.2s-7.5,3.5-12.9,3.5c-5.9,0-10.5-1.3-13.9-3.9c-3.2-2.3-5-5.9-5-9.8
	c0-24.6-0.5-53.2-1.5-85.6c-0.5-19.2-0.7-32.4-0.7-39.9c-0.3-5.4-1.1-9.6-2.4-12.7c-2.3-4.7-4.8-9.4-7.5-13.9
	c-0.9-2-1.4-4.1-1.5-6.3c0-3.7,2.1-7.1,6.3-10.3c4.2-3.2,8.2-4.8,12.2-4.8c4.2,0,8.2,2.7,12.2,8.2c6.7,9.6,10,18.3,10,26.2v4.5
	c4.2-11.3,11.4-21.3,20.9-28.8c9.5-7.6,22.2-11.4,38.2-11.4C2142.1,145,2158.1,152.4,2169,167.3z"/>
<path d="M2351.1,272.3c2.5,2.5,3.7,6.7,3.7,12.5c0,14-4.6,25.7-13.7,34.9c-9.1,9.2-20.7,13.9-34.7,13.9c-19.5,0-33.5-8.3-42.1-24.9
	c-8.6-16.6-12.9-42.6-12.9-78c0-12.5,0.4-25.1,1.1-37.6l-17.7-1.1c-9.6-0.5-14.4-5.5-14.4-15.2c0-4.9,1.3-8.6,3.9-10.9
	c2.5-2.3,6.8-3.4,12.7-3.2l18.1,1.1c1.5-15.5,4.3-37,8.5-64.6c1.5-8.9,7.5-13.3,18.1-13.3c6.1,0,10.9,1.6,14.2,4.8
	c3.2,2.9,4.8,7.1,4.2,11.4c-3.4,21.4-6.4,42.6-8.9,63.5c13.3,0.5,22,0.7,26.2,0.7c4.6,0,8.2,1.1,10.3,3.2c2.2,2.1,3.3,5.3,3.3,9.8
	c0,5.4-1.1,9.2-3.5,11.2c-2.4,2-6.6,3.2-12.7,3.5h-26.2c-0.7,11.8-1.1,24-1.1,36.6c0,24.8,1.6,43.2,4.8,55.1
	c3.2,11.9,8.9,17.9,17,17.9c9.4,0,14.4-7.3,15.2-21.7c0-4.5,1.1-7.7,3.2-10c2.1-2.3,5.9-3.3,11.2-3.3
	C2344.6,268.6,2348.7,269.8,2351.1,272.3z"/>
</svg>
