<?xml version="1.0" encoding="iso-8859-1"?>
<!-- Generator: Adobe Illustrator 24.0.1, SVG Export Plug-In . SVG Version: 6.00 Build 0)  -->
<svg version="1.1" xmlns="http://www.w3.org/2000/svg" xmlns:xlink="http://www.w3.org/1999/xlink" x="0px" y="0px"
	 viewBox="0 0 3000 3000" style="enable-background:new 0 0 3000 3000;" xml:space="preserve">
<g id="&#x56FE;&#x5C42;_1" style="display:none;">
	
		<image style="display:inline;overflow:visible;" width="1080" height="1080" xlink:href="H:\&#x5DE5;&#x4F5C;\&#x55B5;&#x55B5;&#x55B5;\&#x55B5;&#x8C1C;\logo\logo&#x8349;&#x56FE;.jpg"  transform="matrix(2.7778 0 0 2.7778 0 54)">
	</image>
</g>
<g id="&#x56FE;&#x5C42;_2">
	<line x1="1590.067" y1="-42.667" x2="1590.067" y2="-42.667"/>
	<g>
		<path d="M2361,2330.333c-502,0-652-496.679-652-1016c0-762,198.536-1042.616,107.202-1042.616
			c-48.201,0-196.54,72.451-364.202,391.616c-249,474-313.65,473.344-569.638,473.344c-157.345,0-307.953-80.344-307.953-312.103
			c0-207.405,195.25-553.538,118.858-552.483c-98.045,1.354-553.848,431.256-553.848,1067.535
			c0,566.708,141.835,779.043,364.247,908.041c66.667,38.667,58.667,115.328-30.711,115.328
			c-215.956,0-376.021-279.988-427.717-545.923C-215,478.333,764.291,2.161,833.369,181.809
			c66.623,173.262-419.787,821.063,102.3,821.063c177.826,0,212.33-78.539,413.33-407.539c188.574-308.661,356-449.918,510-449.918
			c228.667,0,17.089,462.282-3.524,803.584c-52,861,182.858,1246.667,498.858,1246.667c140,0,191.471-108.027,158.667-448
			c-33-342,52.207-482.136,198-727.333c396-666-150.437-678.343-322-599.333c-202.667,93.333-126,399.333,46,303.333
			c177.667-99.163,173.202,188-80,188c-181.819,0-289.423-210.873-202-444c152-405.333,1347-399,606,785.872
			C2466.371,1722.124,2978.333,2330.333,2361,2330.333z"/>
	</g>
	<path d="M1590.067-42.667"/>
	<path d="M1590.067-42.667"/>
	<g id="&#x56FE;&#x5C42;_5">
	</g>
</g>
<g id="&#x56FE;&#x5C42;_8" style="display:none;">
	<path style="display:inline;fill:#ED1C24;" d="M2699.475,1296.3c-222.015,222.015,0.946,539.82-5.13,798.63
		c1.485,118.846-40.2,311.278-328.2,311.278c-350.553,0-519.324-322.213-604.03-752.294C1606.195,862.254,2154.945-179,1573.611,581
		c-263.486,344.466-242.667,590.102-624.108,590.102c-461.226,0-385.444-409.032-311.103-594.471
		C709.611,399,814.611,97.333,441.611,559c-489.146,605.422-289.111,1368.259-75.24,1799.014
		c-31.003,262.341-370.296-551.015-338.259-619.055c-168.751-1046.813,465.5-1551.52,751.5-1551.52
		c268,0-363.333,861.965,167.127,861.965c320.8,0,274.873-208.404,538.873-544.404c447.326-569.323,519.023-237.558,465.032-6.159
		C1819.478,1061,1866.681,1537.691,2008.145,1843c115.525,249.329,248.192,418.08,435.333,340.667
		c170.931-70.708-73.91-473.132,36.693-801.653c83.681-248.557,200.924-309.169,310.497-517.786
		c218.092-415.228-61.856-536.5-253.738-536.5c-446.785,0-329.451,458.606-197.451,413.273
		c203.199-69.786,225.333,188.399-49.422,188.399c-173.6,0-247.911-203.066-215.666-410.542
		C2173.204-116.935,3630.145,141,2699.475,1296.3z"/>
</g>
<g id="&#x56FE;&#x5C42;_3" style="display:none;">
	<rect x="-202.938" y="2406.208" style="display:inline;fill:#00FF00;" width="3292" height="512"/>
	<rect x="3041" y="183" style="display:inline;" width="0" height="34"/>
</g>
<g id="&#x56FE;&#x5C42;_3_x5F_&#x590D;&#x5236;" style="display:none;">
	<rect x="-202.938" y="-324.561" style="display:inline;fill:#00FF00;" width="3292" height="512"/>
	<rect x="3041" y="-2547.769" style="display:inline;" width="0" height="34"/>
</g>
<g id="&#x56FE;&#x5C42;_3_x5F_&#x590D;&#x5236;_2" style="display:none;">
	<rect x="-202.438" y="-197.616" style="display:inline;fill:#FF0000;" width="3292" height="512"/>
	<rect x="3041.5" y="-2420.825" style="display:inline;fill:#FF0000;" width="0" height="34"/>
</g>
<g id="&#x56FE;&#x5C42;_6" style="display:none;">
	
		<rect x="423.785" y="611.224" transform="matrix(4.490281e-11 -1 1 4.490281e-11 -611.2241 2829.9932)" style="display:inline;fill:#00FF00;" width="1371.199" height="2218.769"/>
</g>
<g id="&#x56FE;&#x5C42;_6_x5F_&#x590D;&#x5236;" style="display:none;">
	
		<rect x="423.785" y="-236.077" transform="matrix(4.490281e-11 -1 1 4.490281e-11 236.0774 1982.6918)" style="display:inline;fill:#00FF00;" width="1371.199" height="2218.769"/>
</g>
<g id="&#x56FE;&#x5C42;_12" style="display:none;">
	<rect x="1.476" style="display:inline;fill:#00FF00;" width="1854" height="3000"/>
</g>
<g id="&#x56FE;&#x5C42;_14" style="display:none;">
	<rect x="145.175" y="1558.907" style="display:inline;fill:#FF00FF;" width="971.738" height="431.093"/>
</g>
<g id="&#x56FE;&#x5C42;_15" style="display:none;">
	<rect x="516.379" y="1558.907" style="display:inline;fill:#FF00FF;" width="600.534" height="431.093"/>
</g>
<g id="&#x56FE;&#x5C42;_9">
	<path d="M516.379,1516.24c0,185.904,139.493,231.53,139.493,0S516.379,1330.336,516.379,1516.24z"/>
</g>
<g id="&#x56FE;&#x5C42;_9_x5F_&#x590D;&#x5236;">
	<path d="M1116.913,1516.24c0,185.904,139.493,231.53,139.493,0S1116.913,1330.336,1116.913,1516.24z"/>
</g>
<g id="&#x56FE;&#x5C42;_17" style="display:none;">
	<g style="display:inline;">
		<g>
			<path d="M404.548,1401.262c100.799,1.454,200.524,31.999,285.275,86.509c23.792,15.302,46.301,32.475,67.353,51.369
				c0.735-2.786,1.471-5.571,2.206-8.357c-89.645,31.089-181.752,54.969-275.233,71.241c-26.534,4.619-53.173,8.62-79.892,12.004
				c-6.298,0.798-6.378,10.808,0,10c94.901-12.019,188.782-31.571,280.507-58.747c25.947-7.688,51.708-15.988,77.276-24.854
				c3.336-1.157,5.186-5.682,2.206-8.357c-76.276-68.457-171.839-114.756-272.766-132.542c-28.706-5.059-57.788-7.845-86.934-8.265
				C398.11,1391.17,398.108,1401.17,404.548,1401.262L404.548,1401.262z"/>
		</g>
	</g>
	<g style="display:inline;">
		<g>
			<path d="M1378.886,1374.938c-98.425,17.506-195.33,43.327-289.382,77.222c-26.615,9.592-52.989,19.841-79.115,30.695
				c-3.386,1.407-5.649,7.222-1.194,9.139c94.099,40.491,190.291,76.051,288.167,106.3c27.409,8.471,54.946,16.52,82.595,24.171
				c6.212,1.719,8.862-7.926,2.658-9.643c-97.696-27.035-193.954-59.204-288.246-96.416c-26.876-10.607-53.587-21.627-80.128-33.047
				c-0.398,3.046-0.796,6.093-1.194,9.139c92.319-38.355,187.844-68.889,285.322-91.085c27.585-6.281,55.321-11.878,83.175-16.832
				C1387.87,1383.455,1385.19,1373.816,1378.886,1374.938L1378.886,1374.938z"/>
		</g>
	</g>
</g>
<g id="&#x56FE;&#x5C42;_16">
	<g>
		<path d="M465.154,2780.742c0.836,36.087,1.259,64.189,1.259,84.327c0,14.268-3.992,25.28-11.957,33.038
			c-7.975,7.759-19.095,11.643-33.353,11.643c-14.268,0-25.595-3.776-33.982-11.327c-8.397-7.552-12.586-17.621-12.586-30.207
			v-169.912c0-41.111-1.258-73.098-3.776-95.97c-2.517-22.861-5.664-34.297-9.439-34.297c-3.363,0-8.397,8.811-15.103,26.431
			c-6.716,17.621-12.586,35.035-17.621,52.232c-7.139,23.501-14.474,50.768-22.026,81.81c-2.94,11.328-8.604,19.725-16.991,25.173
			c-8.397,5.457-19.508,8.181-33.353,8.181c-28.112,0-45.104-10.275-50.974-30.836l-7.552-27.061
			c-5.88-21.396-11.957-41.317-18.25-59.783c-5.034-14.681-11.328-31.043-18.879-49.086c-7.552-18.034-12.38-27.061-14.474-27.061
			c-2.517,0-4.405,11.643-5.664,34.927c-1.258,23.284-2.311,54.229-3.146,92.822c-0.423,15.104-0.629,35.241-0.629,60.413
			l0.629,113.275c0,11.327-4.198,20.452-12.586,27.374c-8.397,6.923-19.931,10.384-34.612,10.384
			c-14.268,0-25.28-3.775-33.039-11.327c-7.768-7.552-11.642-20.551-11.642-39.017l0.629-79.293
			c0.836-35.241,1.259-63.137,1.259-83.697c0-57.051,2.93-102.892,8.81-137.503c5.87-34.612,15.104-59.883,27.689-75.832
			c12.586-15.938,29.154-23.913,49.715-23.913c24.749,0,45.202,9.862,61.357,29.577c16.146,19.725,28.319,41.957,36.5,66.706
			c8.181,24.76,16.047,54.12,23.599,88.103c7.965-32.724,16.568-61.77,25.802-87.158c9.223-25.379,22.124-47.926,38.702-67.65
			c16.568-19.715,36.814-29.577,60.728-29.577c21.809,0,38.8,9.125,50.974,27.375c12.163,18.249,20.659,44.474,25.487,78.663
			c4.818,34.198,7.237,78.142,7.237,131.839C463.895,2715.924,464.308,2744.665,465.154,2780.742z"/>
		<path d="M575.591,2560.8c-10.698-10.698-16.047-24.228-16.047-40.59s5.349-29.676,16.047-39.961
			c10.698-10.275,24.641-15.418,41.849-15.418c16.775,0,30.413,5.143,40.905,15.418c10.482,10.285,15.732,23.393,15.732,39.332
			c0,16.361-5.349,30-16.047,40.904c-10.698,10.915-24.445,16.362-41.22,16.362C600.026,2576.848,586.289,2571.498,575.591,2560.8z
			 M574.647,2891.5c-8.81-6.706-13.009-15.732-12.586-27.061l5.035-232.213c0.413-11.328,4.818-20.236,13.215-26.746
			c8.387-6.499,19.292-9.754,32.724-9.754c13.845,0,25.172,3.363,33.982,10.069c8.811,6.716,12.999,15.948,12.586,27.689
			l-5.035,231.584c-0.423,11.327-4.936,20.246-13.53,26.745c-8.604,6.51-19.616,9.755-33.038,9.755
			C594.568,2901.569,583.458,2898.216,574.647,2891.5z"/>
		<path d="M1077.774,2844.302c4.405,4.622,6.608,12.803,6.608,24.543c0,10.069-2.625,18.673-7.866,25.802
			c-5.251,7.139-12.271,10.698-21.082,10.698c-18.043,0-31.888-2.202-41.534-6.607c-9.656-4.405-18.466-12.479-26.431-24.229
			c-9.233,13.845-21.819,23.599-37.758,29.263c-15.949,5.664-34.612,8.495-56.008,8.495c-47.414,0-83.491-13.628-108.24-40.904
			c-24.759-27.267-37.129-65.231-37.129-113.904c0-31.878,6.5-60.197,19.508-84.956c12.999-24.749,31.15-44.052,54.435-57.896
			c23.284-13.845,50.03-20.767,80.236-20.767c15.103,0,29.154,2.939,42.164,8.811c12.999,5.88,22.861,13.638,29.577,23.284
			l1.259-8.182c0.835-5.87,4.188-10.796,10.069-14.788c5.87-3.982,15.103-5.979,27.689-5.979c13.422,0,23.284,2.733,29.577,8.181
			c6.293,5.457,9.439,12.38,9.439,20.768c0,2.939-0.216,5.25-0.629,6.922c-2.517,14.268-5.034,38.182-7.551,71.741
			c-1.259,15.525-1.888,35.457-1.888,59.784v31.465c0,12.173,1.042,21.505,3.146,28.004c2.095,6.51,6.706,10.384,13.845,11.643
			C1067.175,2836.75,1073.37,2839.69,1077.774,2844.302z M954.746,2712.148c0-14.258-4.72-25.9-14.16-34.927
			c-9.439-9.017-21.504-13.53-36.185-13.53c-18.879,0-34.405,8.712-46.568,26.116c-12.173,17.414-18.25,39.755-18.25,67.021
			c0,26.018,5.447,46.784,16.362,62.301c10.905,15.526,25.585,23.284,44.052,23.284c17.197,0,30.413-4.297,39.646-12.9
			c9.223-8.594,14.051-21.082,14.474-37.444C954.529,2774.872,954.746,2748.234,954.746,2712.148z"/>
		<path d="M1175.316,2865.384c-31.259-27.896-46.883-67.021-46.883-117.365c0-32.724,6.922-61.879,20.767-87.474
			c13.845-25.585,33.452-45.517,58.84-59.784c25.378-14.258,55.271-21.396,89.676-21.396c34.818,0,65.448,7.346,91.878,22.026
			c26.431,14.69,46.883,35.143,61.357,61.357c14.474,26.224,21.711,56.116,21.711,89.676c0,49.086-15.319,87.158-45.939,114.219
			c-30.63,27.06-72.164,40.59-124.603,40.59C1248.836,2907.232,1206.565,2893.29,1175.316,2865.384z M1360.332,2815.669
			c14.051-14.475,21.082-35.969,21.082-64.504c0-28.103-6.824-52.124-20.453-72.056c-13.638-19.921-33.667-29.892-60.099-29.892
			c-24.759,0-44.474,9.026-59.154,27.06c-14.69,18.044-22.026,42.164-22.026,72.37c0,29.371,7.129,51.505,21.396,66.392
			c14.257,14.897,34.189,22.341,59.784,22.341C1326.448,2837.38,1346.271,2830.143,1360.332,2815.669z"/>
		<path d="M1944.009,2673.446c6.706,6.922,10.068,17.306,10.068,31.15s-3.362,24.13-10.068,30.836
			c-6.716,6.716-14.062,10.068-22.026,10.068h-5.034l3.146,117.681c0.413,13.432-3.461,24.021-11.642,31.779
			c-8.182,7.769-19.41,11.643-33.668,11.643c-13.845,0-24.966-3.668-33.354-11.013c-8.397-7.336-12.803-17.307-13.216-29.893
			l-3.775-121.456l-160.473-2.517l-10.698,135.301c-1.682,21.818-16.785,32.724-45.31,32.724c-15.949,0-27.906-3.255-35.871-9.754
			c-7.975-6.5-11.544-16.254-10.698-29.263l10.069-130.267h-3.776c-10.068,0-17.935-3.668-23.599-11.013
			c-5.664-7.336-8.495-17.513-8.495-30.521c0-12.999,3.146-22.97,9.439-29.892c6.293-6.923,14.681-10.384,25.172-10.384h8.181
			l13.216-169.912c0.836-11.328,5.664-20.551,14.474-27.689c8.811-7.129,20.138-10.698,33.982-10.698
			c14.681,0,25.802,4.198,33.354,12.586c7.552,8.397,10.904,19.302,10.069,32.724l-13.216,164.249l151.662,1.888l-5.034-168.654
			c-0.423-12.586,3.461-22.861,11.643-30.836c8.181-7.964,19.606-11.956,34.297-11.956c13.845,0,24.956,3.884,33.354,11.642
			c8.387,7.769,12.792,17.307,13.215,28.634l5.034,172.43h8.182C1930.164,2663.063,1937.293,2666.523,1944.009,2673.446z"/>
		<path d="M2309.63,2840.526c2.518,8.397,5.241,15.104,8.181,20.138c2.931,5.034,4.405,7.975,4.405,8.811
			c0,10.491-3.884,19.193-11.642,26.116c-7.769,6.922-18.151,10.383-31.15,10.383c-7.975,0-16.677-4.297-26.116-12.9
			c-9.44-8.594-15.635-18.142-18.564-28.634c-14.69,28.112-42.164,42.164-82.439,42.164c-36.923,0-65.556-12.999-85.9-39.018
			c-20.354-26.008-30.521-59.154-30.521-99.43v-148.516c0-9.646,4.297-17.513,12.9-23.6c8.594-6.076,19.193-9.125,31.78-9.125
			c12.586,0,23.382,3.049,32.409,9.125c9.017,6.087,13.529,13.953,13.529,23.6v147.257c0,18.044,3.146,34.199,9.439,48.457
			c6.294,14.268,15.939,21.396,28.948,21.396c16.362,0,28.417-7.335,36.186-22.025c7.758-14.681,11.642-40.481,11.642-77.404
			v-116.422c0-11.327,4.091-20.344,12.271-27.06c8.182-6.706,18.978-10.069,32.409-10.069c13.845,0,25.064,3.363,33.668,10.069
			c8.594,6.716,12.9,15.732,12.9,27.06l1.889,185.016C2305.854,2820.604,2307.113,2832.139,2309.63,2840.526z"/>
		<path d="M2657.949,2622.472c20.345,25.802,30.521,63.875,30.521,114.22l-0.629,142.223c0,8.811-4.308,15.526-12.901,20.138
			c-8.604,4.621-19.193,6.922-31.779,6.922c-12.174,0-22.97-2.094-32.409-6.293c-9.44-4.188-14.16-10.068-14.16-17.62l0.63-145.999
			c0-30.619-3.363-52.016-10.069-64.189c-6.716-12.163-17.207-18.249-31.465-18.249c-12.173,0-21.819,5.457-28.948,16.361
			c-7.139,10.915-13.216,32.095-18.25,63.561c-2.939,17.62-4.405,37.129-4.405,58.524l0.63,81.181
			c0,10.915-4.091,19.194-12.271,24.857c-8.182,5.664-19.194,8.496-33.039,8.496c-14.268,0-25.486-2.931-33.668-8.811
			c-8.181-5.87-12.271-14.051-12.271-24.543c0-87.257-1.259-155.222-3.776-203.895c-0.423-5.034-1.573-9.754-3.461-14.159
			s-4.091-8.496-6.607-12.271c-2.518-3.776-4.405-6.706-5.664-8.811c-2.518-4.611-3.776-9.224-3.776-13.845
			c0-8.811,5.133-17.09,15.418-24.857c10.275-7.758,20.236-11.643,29.893-11.643c4.611,0,9.125,1.476,13.53,4.405
			c4.404,2.94,9.331,7.769,14.788,14.475c4.612,5.88,7.965,11.12,10.069,15.732c2.094,4.621,3.146,9.862,3.146,15.732v5.664
			c7.552-15.939,18.978-29.263,34.297-39.961c15.31-10.698,35.556-16.048,60.728-16.048
			C2608.962,2583.77,2637.596,2596.671,2657.949,2622.472z"/>
		<path d="M2971.022,2788.294c6.293,5.457,9.439,14.268,9.439,26.431c0,27.689-8.811,49.932-26.431,66.706
			c-17.621,16.785-39.862,25.173-66.706,25.173c-36.5,0-63.147-14.789-79.922-44.366c-16.785-29.577-25.173-76.461-25.173-140.649
			c0-19.292,0.207-33.354,0.63-42.164c-2.94-0.413-7.769-0.629-14.475-0.629c-23.913-0.413-35.87-11.957-35.87-34.611
			c0-11.741,3.038-20.551,9.125-26.432c6.077-5.87,16.883-8.594,32.409-8.181l13.845,0.629c2.931-26.008,7.758-57.896,14.475-95.654
			c1.671-10.068,6.391-17.719,14.159-22.969c7.758-5.241,17.719-7.867,29.892-7.867c14.258,0,25.379,3.363,33.354,10.069
			c7.965,6.716,11.956,14.896,11.956,24.543l-0.629,5.034l-3.146,20.138c-5.034,34.405-8.397,57.896-10.069,70.482
			c14.258,0.846,25.173,1.259,32.725,1.259c21.396,0.423,32.095,11.544,32.095,33.353c0,10.915-2.94,19.096-8.811,24.543
			c-5.88,5.458-15.732,8.182-29.577,8.182h-31.466c-0.423,8.396-0.629,21.818-0.629,40.275c0,31.052,0.728,54.857,2.202,71.426
			c1.466,16.578,3.668,27.798,6.608,33.668c2.93,5.88,6.706,8.811,11.327,8.811c5.87,0,9.646-1.889,11.327-5.664
			c1.672-3.775,2.518-10.481,2.518-20.138c0-19.715,11.534-29.577,34.611-29.577
			C2954.66,2780.113,2964.729,2782.847,2971.022,2788.294z"/>
	</g>
</g>
</svg>
