<?xml version="1.0" encoding="iso-8859-1"?>
<!-- Generator: Adobe Illustrator 24.0.1, SVG Export Plug-In . SVG Version: 6.00 Build 0)  -->
<svg version="1.1" id="&#x56FE;&#x5C42;_1" xmlns="http://www.w3.org/2000/svg" xmlns:xlink="http://www.w3.org/1999/xlink" x="0px"
	 y="0px" viewBox="0 0 1000 1000" style="enable-background:new 0 0 1000 1000;" xml:space="preserve">
<line x1="163.071" y1="-17.225" x2="163.071" y2="-17.225"/>
<g>
	<path d="M240.695,221.711c-50.546,0-65.65-50.01-65.65-102.301c0-76.725,19.99-104.981,10.794-104.981
		c-4.853,0-19.789,7.295-36.671,39.432c-25.072,47.727-31.581,47.661-57.357,47.661c-15.843,0-31.008-8.09-31.008-31.426
		c0-20.883,19.66-55.736,11.968-55.629c-9.872,0.136-55.767,43.423-55.767,107.49c0,57.062,14.281,78.441,36.676,91.43
		C60.394,217.281,59.588,225,50.589,225c-21.745,0-37.861-28.192-43.067-54.969C-18.681,35.234,79.923-12.711,86.879,5.377
		C93.587,22.823,44.611,88.05,97.18,88.05c17.905,0,21.379-7.908,41.618-41.035c18.987-31.079,35.845-45.302,51.352-45.302
		c23.024,0,1.721,46.547-0.355,80.913c-5.236,86.694,18.412,125.526,50.23,125.526c14.097,0,19.279-10.877,15.976-45.109
		c-3.323-34.436,5.257-48.546,19.937-73.235c39.873-67.059-15.147-68.302-32.422-60.347c-20.406,9.398-12.687,40.209,4.632,30.543
		c17.889-9.985,17.44,18.93-8.055,18.93c-18.307,0-29.142-21.233-20.339-44.706c15.305-40.813,135.629-40.175,61.018,79.129
		C251.305,160.471,302.854,221.711,240.695,221.711z"/>
</g>
<path d="M163.071-17.225"/>
<path d="M163.071-17.225"/>
<path d="M54.961,139.741c0,18.719,14.045,23.313,14.045,0S54.961,121.022,54.961,139.741z"/>
<path d="M115.429,139.741c0,18.719,14.045,23.313,14.045,0S115.429,121.022,115.429,139.741z"/>
<g>
	<path d="M453.681,175.664c0.404,1.347,0.606,2.357,0.606,3.03c0,2.695-1.079,4.746-3.231,6.16c-2.155,1.414-4.847,2.12-8.079,2.12
		c-2.292,0-4.311-0.505-6.06-1.515c-1.751-1.01-2.897-2.389-3.433-4.14c-3.231-10.907-6.059-20.803-8.483-29.69l-52.108-0.202
		l-8.887,29.084c-1.211,4.175-4.443,6.261-9.694,6.261c-2.963,0-5.589-0.776-7.877-2.322c-2.291-1.547-3.434-3.535-3.434-5.958
		c0-0.808,0.202-1.818,0.606-3.03c13.462-40.259,23.763-71.226,30.901-92.906l5.655-17.571c2.96-8.615,5.924-14.709,8.887-18.278
		c2.96-3.566,6.798-5.352,11.512-5.352c4.443,0,8.044,1.616,10.805,4.848c2.759,3.231,5.419,8.82,7.978,16.763
		c6.463,20.332,13.598,43.559,21.409,69.68h5.655c2.692,0,4.746,0.842,6.16,2.525c1.414,1.685,2.12,4.008,2.12,6.968
		c0,6.331-2.221,9.493-6.665,9.493h-1.616L453.681,175.664z M419.548,132.443l-1.212-4.645
		c-5.251-18.581-9.426-32.988-12.522-43.222c-0.404-1.212-1.08-3.434-2.02-6.665c-0.943-3.231-1.717-5.52-2.322-6.867
		c-0.606-1.344-1.181-2.02-1.717-2.02c-0.676,0-1.313,0.776-1.919,2.323c-0.606,1.549-1.449,4.276-2.524,8.18
		c-0.136,0.675-0.338,1.348-0.606,2.02c-0.271,0.676-0.54,1.483-0.808,2.424c-0.54,1.887-1.01,3.301-1.414,4.241
		c-1.483,4.715-3.301,10.537-5.453,17.471c-2.155,6.936-4.847,15.722-8.079,26.357L419.548,132.443z"/>
	<path d="M577.08,63.975c15.079,11.178,22.621,27.2,22.621,48.069c0,14.409-3.635,26.998-10.907,37.768
		c-7.271,10.774-17.707,19.121-31.305,25.044c-13.602,5.927-29.557,8.887-47.867,8.887h-13.936c-3.907,0-6.734-0.707-8.483-2.12
		c-1.751-1.414-2.626-3.803-2.626-7.17c0-5.788,2.692-8.685,8.079-8.685h5.251l-3.03-104.216h-1.212c-6.195,0-9.29-2.894-9.29-8.685
		c0-6.327,3.231-9.492,9.695-9.492h2.221c1.344-2.424,4.172-3.636,8.482-3.636c4.444,0,7.404,1.414,8.887,4.241
		C540.858,46.136,561.999,52.8,577.08,63.975z M549.815,157.79c9.291-4.374,16.593-10.468,21.913-18.279
		c5.318-7.807,7.978-16.965,7.978-27.468c0-16.29-5.958-28.206-17.874-35.749c-11.916-7.539-27.503-12.184-46.755-13.936
		l2.827,103.206C529.886,164.758,540.524,162.167,549.815,157.79z"/>
	<path d="M755.822,138.502c0.269,16.429,0.404,29.017,0.404,37.768c0,3.099-0.843,5.522-2.525,7.271
		c-1.685,1.749-4.14,2.626-7.371,2.626c-3.231,0-5.756-0.843-7.574-2.525c-1.817-1.682-2.727-3.939-2.727-6.766v-56.956
		c0-18.714-0.675-32.517-2.019-41.404c-1.348-8.887-3.099-13.33-5.251-13.33c-1.888,0-4.512,3.03-7.877,9.089
		c-3.367,6.059-6.194,11.985-8.483,17.773c-3.503,8.35-6.936,20.332-10.3,35.951c-1.211,5.119-4.983,7.675-11.31,7.675
		c-6.059,0-9.764-2.354-11.109-7.069c-0.943-2.828-2.019-6.665-3.231-11.512c-2.828-10.77-5.32-18.985-7.472-24.64
		c-2.292-6.328-5.119-12.522-8.483-18.581c-3.368-6.059-5.857-9.089-7.473-9.089c-3.907,0-6.261,17.909-7.069,53.724
		c-0.135,6.463-0.202,15.823-0.202,28.074v30.296c0,2.559-0.909,4.613-2.727,6.16c-1.818,1.55-4.411,2.322-7.776,2.322
		c-3.503,0-5.992-0.874-7.472-2.625c-1.483-1.749-2.222-4.443-2.222-8.079c0-7.135,0.132-17.032,0.404-29.69l0.202-26.862
		c0-26.792,1.919-46.317,5.756-58.571c3.838-12.251,10.064-18.38,18.683-18.38c9.827,0,17.773,6.23,23.832,18.682
		c6.059,12.456,11.443,28.109,16.157,46.958c4.172-17.233,9.795-32.482,16.865-45.746c7.069-13.261,15.451-19.894,25.145-19.894
		c5.924,0,10.534,2.998,13.835,8.988c3.298,5.993,5.62,14.612,6.968,25.852c1.345,11.244,2.086,25.619,2.222,43.121L755.822,138.502
		z"/>
	<path d="M855.998,168.293c1.345,1.55,2.02,3.806,2.02,6.766c0,6.195-3.029,9.291-9.089,9.291l-60.995-0.808
		c-5.387-0.132-8.078-3.231-8.078-9.29c0-3.096,0.808-5.384,2.424-6.867c1.615-1.48,3.635-2.221,6.059-2.221l21.005,0.202
		c2.019-33.795,3.095-68.872,3.231-105.226c-4.848,0.136-11.512,0.54-19.995,1.212l-6.463,0.404c-2.155,0-3.907-0.808-5.251-2.423
		c-1.348-1.616-2.02-3.838-2.02-6.665c0-2.96,0.708-5.15,2.121-6.564c1.414-1.414,3.399-2.323,5.958-2.727
		c2.424-0.269,7.404-0.606,14.946-1.01c7.539-0.404,14.946-0.672,22.217-0.808c10.634,0,19.319,0.404,26.053,1.211
		c5.251,0.675,7.877,3.705,7.877,9.089c0,2.695-0.707,4.847-2.121,6.463c-1.413,1.616-3.534,2.423-6.362,2.423l-6.059-0.202
		l-10.705-0.606c0,39.857-1.211,75.133-3.635,105.832l19.995,0.202C852.363,165.97,854.65,166.746,855.998,168.293z"/>
	<path d="M1000,51.453l-0.202,67.054c0,17.641-0.539,31.037-1.615,40.192c-1.079,9.158-2.762,15.451-5.05,18.884
		c-2.292,3.433-5.655,5.15-10.098,5.15c-4.175,0-8.451-1.919-12.826-5.756c-4.377-3.838-9.29-9.695-14.744-17.571
		c-5.452-7.877-13.162-19.759-23.125-35.648c-16.158-25.852-26.66-42.278-31.508-49.281l0.202,42.212l0.202,57.965
		c0,2.291-0.944,4.276-2.828,5.958c-1.887,1.685-4.311,2.525-7.271,2.525c-2.828,0-5.22-0.839-7.17-2.525
		c-1.953-1.682-2.929-3.667-2.929-5.958v-58.571l-0.202-27.266c-0.135-5.923-0.202-14.406-0.202-25.448
		c0-7.675,0.808-13.128,2.424-16.36s4.711-4.847,9.29-4.847c4.04,0,7.943,1.616,11.714,4.847c3.769,3.231,7.776,7.911,12.017,14.037
		c4.242,6.128,10.604,15.99,19.087,29.589l6.867,11.108c10.502,16.833,18.278,29.052,23.328,36.658
		c5.049,7.609,9.391,13.835,13.027,18.682c0.808-13.734,1.211-26.59,1.211-38.576V49.635c0-2.692,0.874-4.847,2.626-6.463
		c1.749-1.616,4.308-2.424,7.675-2.424C996.633,40.748,1000,44.318,1000,51.453z"/>
</g>
</svg>
